<svg width="47.867" height="60.656" viewBox="0 0 12.665 16.049" xmlns="http://www.w3.org/2000/svg"><defs><filter style="color-interpolation-filters:sRGB" id="a" x="-.261" y="-.284" width="1.523" height="1.569"><feGaussianBlur stdDeviation="14.256"/></filter></defs><path style="opacity:.886435;fill:#000;fill-opacity:.992157;stroke-width:.101364" d="M37.117 132.282h12.665v16.049H37.117z" transform="translate(-37.117 -132.282)"/><path style="fill:#fff;fill-opacity:1;stroke-width:.264" d="M4202.39 319.591c-11.719-.013-71.007-102.594-65.141-112.75 5.865-10.155 124.27-10.143 130.142 0 5.873 10.143-53.28 112.763-65 112.75z" transform="matrix(.046 0 0 .046 -186.922 -3.684)"/><path style="mix-blend-mode:normal;fill:#fff;fill-opacity:1;stroke-width:.264;filter:url(#a)" d="M4202.39 319.591c-11.719-.013-71.007-102.594-65.141-112.75 5.865-10.155 124.27-10.143 130.142 0 5.873 10.143-53.28 112.763-65 112.75z" transform="matrix(.046 0 0 .046 -186.922 -3.684)"/></svg>