<?xml version="1.0" encoding="UTF-8" standalone="no"?>
<!-- Created with Inkscape (http://www.inkscape.org/) -->

<svg
   width="8.4666595mm"
   height="8.4666595mm"
   viewBox="0 0 8.4666595 8.4666595"
   version="1.1"
   id="svg4271"
   inkscape:version="1.2.1 (9c6d41e410, 2022-07-14)"
   sodipodi:docname="favicon.svg"
   xmlns:inkscape="http://www.inkscape.org/namespaces/inkscape"
   xmlns:sodipodi="http://sodipodi.sourceforge.net/DTD/sodipodi-0.dtd"
   xmlns="http://www.w3.org/2000/svg"
   xmlns:svg="http://www.w3.org/2000/svg">
  <sodipodi:namedview
     id="namedview4273"
     pagecolor="#ffffff"
     bordercolor="#999999"
     borderopacity="1"
     inkscape:showpageshadow="0"
     inkscape:pageopacity="0"
     inkscape:pagecheckerboard="0"
     inkscape:deskcolor="#d1d1d1"
     inkscape:document-units="mm"
     showgrid="false"
     inkscape:zoom="0.78127806"
     inkscape:cx="-74.237334"
     inkscape:cy="130.55531"
     inkscape:window-width="1920"
     inkscape:window-height="1009"
     inkscape:window-x="-8"
     inkscape:window-y="-8"
     inkscape:window-maximized="1"
     inkscape:current-layer="layer1" />
  <defs
     id="defs4268" />
  <g
     inkscape:label="Warstwa 1"
     inkscape:groupmode="layer"
     id="layer1"
     transform="translate(-124.79404,-114.29575)">
    <rect
       y="114.29575"
       x="124.79404"
       height="8.4666595"
       width="8.4666595"
       id="rect1921"
       style="fill:#503af5;fill-opacity:1;stroke-width:0.0524523;stroke-linecap:round;paint-order:stroke fill markers"
       ry="0" />
    <g
       id="g1931"
       style="fill:#ffffff"
       transform="matrix(0.16817282,0,0,0.16817282,2331.2251,3376.9742)">
      <path
         style="opacity:1;fill:#ffffff;fill-opacity:1;stroke:none;stroke-width:7.89972;stroke-dasharray:none;stroke-opacity:1"
         d="m -13110.336,-19360.311 c -0.07,-0.08 -0.233,-0.705 -0.369,-1.388 -0.415,-2.079 -0.471,-2.349 -0.872,-4.207 l -0.388,-1.794 0.924,-1.494 c 0.508,-0.821 1.023,-1.667 1.144,-1.88 0.777,-1.37 2.125,-3.488 2.219,-3.488 0.107,0 0.267,0.32 0.99,1.973 0.659,1.506 0.774,1.765 0.972,2.179 0.112,0.233 0.204,0.478 0.204,0.544 0,0.07 0.164,0.483 0.365,0.928 l 0.731,1.615 c 0.201,0.445 0.365,0.838 0.365,0.874 0,0.04 0.195,0.491 0.434,1.011 l 0.433,0.947 -0.773,1.651 c -0.426,0.909 -0.866,1.863 -0.978,2.121 l -0.205,0.469 -2.537,0.04 c -1.568,0.03 -2.584,-0.01 -2.659,-0.104 z"
         id="path1923" />
      <path
         style="opacity:1;fill:#ffffff;fill-opacity:1;stroke:none;stroke-width:7.89972;stroke-dasharray:none;stroke-opacity:1"
         d="m -13100.981,-19360.375 c 0,-0.08 0.471,-1.095 1.047,-2.262 l 1.047,-2.122 -0.487,-1.065 c -0.267,-0.585 -0.763,-1.656 -1.102,-2.38 -0.338,-0.723 -0.763,-1.644 -0.943,-2.046 -0.18,-0.402 -0.51,-1.125 -0.734,-1.608 -0.223,-0.482 -0.633,-1.37 -0.912,-1.973 -0.278,-0.603 -0.739,-1.589 -1.023,-2.192 -0.284,-0.603 -0.662,-1.425 -0.84,-1.827 -0.178,-0.402 -0.514,-1.123 -0.745,-1.603 l -0.421,-0.871 3.385,-3.396 c 3.179,-3.19 3.395,-3.377 3.547,-3.075 0.09,0.176 0.352,0.782 0.584,1.344 0.467,1.132 0.811,1.934 1.251,2.922 0.16,0.361 0.292,0.688 0.292,0.727 0,0.04 0.172,0.45 0.383,0.915 0.45,0.992 0.415,0.911 1.957,4.571 0.66,1.568 1.323,3.122 1.472,3.454 0.149,0.332 0.578,1.351 0.951,2.266 0.374,0.914 0.81,1.957 0.969,2.319 0.16,0.362 0.347,0.79 0.416,0.95 0.07,0.161 0.425,0.975 0.79,1.81 0.364,0.834 0.663,1.604 0.663,1.712 0,0.172 -1.115,2.706 -1.441,3.275 -0.108,0.187 -0.862,0.225 -5.116,0.258 -3.125,0.02 -4.99,-0.01 -4.99,-0.103 z"
         id="path1925" />
      <path
         style="opacity:1;fill:#ffffff;fill-opacity:1;stroke:none;stroke-width:7.89972;stroke-dasharray:none;stroke-opacity:1"
         d="m -13090.89,-19377.422 c -0.245,-0.539 -0.445,-0.999 -0.445,-1.023 0,-0.02 -0.23,-0.54 -0.511,-1.149 -0.282,-0.609 -0.512,-1.133 -0.512,-1.164 0,-0.03 -0.296,-0.685 -0.658,-1.454 -0.361,-0.769 -0.657,-1.429 -0.657,-1.468 0,-0.04 -0.19,-0.485 -0.423,-0.993 -0.896,-1.959 -1.231,-2.701 -1.506,-3.335 -0.534,-1.234 -0.667,-1.536 -1.05,-2.38 -0.211,-0.464 -0.383,-0.941 -0.383,-1.059 0,-0.186 0.6,-0.213 4.275,-0.198 2.352,0.01 4.961,0.06 5.798,0.11 l 1.522,0.09 0.317,0.878 c 0.175,0.482 0.356,0.975 0.402,1.096 0.328,0.858 1.439,4.272 1.4,4.304 -0.07,0.06 -5.35,0.374 -6.296,0.373 -0.587,0 -0.841,0.06 -0.841,0.187 0,0.104 0.461,1.358 1.024,2.789 0.562,1.43 1.023,2.651 1.023,2.713 0,0.16 -1.745,2.56 -1.903,2.616 -0.07,0.03 -0.332,-0.395 -0.576,-0.934 z"
         id="path1927" />
      <path
         style="opacity:1;fill:#ffffff;fill-opacity:1;stroke:none;stroke-width:7.89972;stroke-dasharray:none;stroke-opacity:1"
         d="m -13086.423,-19360.859 c 0.127,-0.342 0.3,-0.786 0.383,-0.987 0.577,-1.384 0.805,-2.116 0.729,-2.338 -0.04,-0.121 -0.222,-0.548 -0.402,-0.95 -0.297,-0.663 -1.435,-3.296 -1.894,-4.385 -0.101,-0.241 -0.348,-0.8 -0.547,-1.243 -0.627,-1.389 -0.628,-1.42 -0.1,-2.17 0.265,-0.374 0.519,-0.712 0.564,-0.753 0.04,-0.04 0.967,-1.257 2.051,-2.704 1.463,-1.954 1.984,-2.556 2.025,-2.338 0.03,0.16 0.102,0.358 0.16,0.438 0.06,0.08 0.22,0.475 0.361,0.877 0.273,0.781 0.369,1.024 0.718,1.827 0.122,0.282 0.722,1.794 1.333,3.362 0.61,1.568 1.183,3.015 1.273,3.216 0.09,0.2 0.213,0.497 0.273,0.657 0.559,1.492 1.159,2.987 1.337,3.335 0.101,0.196 -0.04,0.734 -0.54,2.046 -0.372,0.98 -0.737,1.895 -0.811,2.035 -0.07,0.14 -0.135,0.353 -0.135,0.475 0,0.191 -0.473,0.221 -3.506,0.221 h -3.507 z"
         id="path1929" />
    </g>
  </g>
</svg>
