<?xml version="1.0" encoding="UTF-8" standalone="no"?>
<!-- Created with Inkscape (http://www.inkscape.org/) -->

<svg
   width="9.5639248mm"
   height="6.3549805mm"
   viewBox="0 0 9.5639248 6.3549805"
   version="1.1"
   id="svg467836"
   inkscape:version="1.2.1 (9c6d41e410, 2022-07-14)"
   sodipodi:docname="hamburger_button.svg"
   xmlns:inkscape="http://www.inkscape.org/namespaces/inkscape"
   xmlns:sodipodi="http://sodipodi.sourceforge.net/DTD/sodipodi-0.dtd"
   xmlns="http://www.w3.org/2000/svg"
   xmlns:svg="http://www.w3.org/2000/svg">
  <sodipodi:namedview
     id="namedview467838"
     pagecolor="#ffffff"
     bordercolor="#999999"
     borderopacity="1"
     inkscape:showpageshadow="0"
     inkscape:pageopacity="0"
     inkscape:pagecheckerboard="0"
     inkscape:deskcolor="#d1d1d1"
     inkscape:document-units="mm"
     showgrid="false"
     inkscape:zoom="6.2502245"
     inkscape:cx="-5.9197874"
     inkscape:cy="38.398621"
     inkscape:window-width="1920"
     inkscape:window-height="1009"
     inkscape:window-x="1912"
     inkscape:window-y="-8"
     inkscape:window-maximized="1"
     inkscape:current-layer="layer1" />
  <defs
     id="defs467833" />
  <g
     inkscape:label="Warstwa 1"
     inkscape:groupmode="layer"
     id="layer1"
     transform="translate(-45.677559,-146.84644)">
    <path
       style="fill:#ffffff;stroke-width:0.192415"
       d="M 1.2909378,23.849605 C 0.64154009,23.582097 0.24484218,23.118983 0.07477729,22.429833 -0.14373387,21.544365 0.26693437,20.633601 1.0846055,20.190276 L 1.442446,19.996262 H 18.073 34.703555 l 0.35784,0.194014 c 0.817671,0.443325 1.228339,1.354089 1.009828,2.239557 -0.158997,0.644303 -0.494546,1.063703 -1.113119,1.391282 l -0.254549,0.134802 -16.545705,0.013 -16.5457044,0.013 z"
       id="path468722"
       transform="matrix(0.26458333,0,0,0.26458333,45.677559,146.84644)" />
    <path
       style="fill:#ffffff;stroke-width:0.192415"
       d="M 1.3813096,13.925647 C 0.84121297,13.738564 0.4467294,13.368543 0.18457119,12.803123 0.0571154,12.528228 0.03195797,12.397114 0.03438341,12.020384 0.03829484,11.412839 0.19551363,11.011328 0.58486175,10.614553 0.93251998,10.260263 1.2784442,10.082193 1.7637497,10.007702 1.9902737,9.9729324 8.0585291,9.9585372 18.32755,9.9684093 l 16.206305,0.01558 0.329649,0.1329817 c 0.217302,0.08766 0.440746,0.241888 0.65563,0.452532 0.426274,0.417865 0.588135,0.813826 0.593088,1.450881 0.0031,0.39367 -0.01956,0.501524 -0.173943,0.829187 -0.211406,0.448698 -0.534107,0.778802 -0.971144,0.993422 l -0.320147,0.157218 -16.489138,0.01249 c -15.6114761,0.01183 -16.5044354,0.0072 -16.7765404,-0.08706 z"
       id="path468724"
       transform="matrix(0.26458333,0,0,0.26458333,45.677559,146.84644)" />
    <path
       style="fill:#ffffff;stroke-width:0.192415"
       d="M 1.4990125,3.9934743 C 1.123181,3.8743025 0.83284056,3.6992065 0.58304987,3.4410835 -0.50210908,2.3197268 0.05388324,0.43511157 1.5755217,0.07695872 c 0.4737557,-0.11150937 32.5212013,-0.11150937 32.9949573,0 0.791359,0.1862647 1.349566,0.76917051 1.517984,1.58515168 0.208326,1.0093347 -0.4092,2.0224345 -1.414781,2.3210602 -0.272469,0.080914 -1.887083,0.089251 -16.62509,0.085834 C 5.0289851,4.0659866 1.6794842,4.0506998 1.4990125,3.9934743 Z"
       id="path468726"
       transform="matrix(0.26458333,0,0,0.26458333,45.677559,146.84644)" />
  </g>
</svg>
