<?xml version="1.0" encoding="UTF-8" standalone="no"?>
<!-- Created with Inkscape (http://www.inkscape.org/) -->

<svg
   width="8.2697697mm"
   height="8.2700996mm"
   viewBox="0 0 8.2697697 8.2700997"
   version="1.1"
   id="svg467836"
   inkscape:version="1.2.1 (9c6d41e410, 2022-07-14)"
   sodipodi:docname="information_button.svg"
   inkscape:export-filename="information_button.png"
   inkscape:export-xdpi="96"
   inkscape:export-ydpi="96"
   xmlns:inkscape="http://www.inkscape.org/namespaces/inkscape"
   xmlns:sodipodi="http://sodipodi.sourceforge.net/DTD/sodipodi-0.dtd"
   xmlns="http://www.w3.org/2000/svg"
   xmlns:svg="http://www.w3.org/2000/svg">
  <sodipodi:namedview
     id="namedview467838"
     pagecolor="#ffffff"
     bordercolor="#999999"
     borderopacity="1"
     inkscape:showpageshadow="0"
     inkscape:pageopacity="0"
     inkscape:pagecheckerboard="0"
     inkscape:deskcolor="#d1d1d1"
     inkscape:document-units="mm"
     showgrid="false"
     inkscape:zoom="8.8391522"
     inkscape:cx="-2.0929609"
     inkscape:cy="2.7151925"
     inkscape:window-width="1920"
     inkscape:window-height="1009"
     inkscape:window-x="1912"
     inkscape:window-y="-8"
     inkscape:window-maximized="1"
     inkscape:current-layer="layer1" />
  <defs
     id="defs467833" />
  <g
     inkscape:label="Warstwa 1"
     inkscape:groupmode="layer"
     id="layer1"
     transform="translate(-49.74435,-152.5295)">
    <g
       id="g485943"
       transform="translate(832.6062,1221.7436)">
      <rect
         style="fill:#ffffff;fill-opacity:1;stroke-width:0.410688"
         id="rect452932"
         width="1.2244658"
         height="2.6517801"
         x="-779.27325"
         y="-1065.4637"
         rx="0.61223292"
         ry="0.61223292" />
      <circle
         style="fill:#ffffff;fill-opacity:1;stroke-width:0.679857"
         id="path452986"
         cx="-778.65906"
         cy="-1066.7689"
         r="0.53880709" />
      <path
         id="circle452990"
         style="fill:#ffffff;fill-opacity:1;stroke-width:0.661904"
         d="m -778.72696,-1069.2141 a 4.1349931,4.1349931 0 0 0 -4.13489,4.1352 4.1349931,4.1349931 0 0 0 4.13489,4.1349 4.1349931,4.1349931 0 0 0 4.13488,-4.1349 4.1349931,4.1349931 0 0 0 -4.13488,-4.1352 z m -0.008,0.7129 a 3.3972418,3.3972418 0 0 1 3.39744,3.3974 3.3972418,3.3972418 0 0 1 -3.39744,3.397 3.3972418,3.3972418 0 0 1 -3.39708,-3.397 3.3972418,3.3972418 0 0 1 3.39708,-3.3974 z" />
      <circle
         style="fill:#ffffff;fill-opacity:1;stroke-width:0.77207"
         id="circle485934"
         cx="-778.65613"
         cy="-1064.8646"
         r="0.61188859" />
      <circle
         style="fill:#ffffff;fill-opacity:1;stroke-width:0.77207"
         id="circle485936"
         cx="-778.65613"
         cy="-1063.4147"
         r="0.61188859" />
    </g>
  </g>
</svg>
