<?xml version="1.0" encoding="UTF-8" standalone="no"?>
<!-- Created with Inkscape (http://www.inkscape.org/) -->

<svg
   width="50.626656mm"
   height="30.20929mm"
   viewBox="0 0 50.626655 30.209289"
   version="1.1"
   id="svg119813"
   inkscape:version="1.2.1 (9c6d41e410, 2022-07-14)"
   sodipodi:docname="game_logo.svg"
   xmlns:inkscape="http://www.inkscape.org/namespaces/inkscape"
   xmlns:sodipodi="http://sodipodi.sourceforge.net/DTD/sodipodi-0.dtd"
   xmlns="http://www.w3.org/2000/svg"
   xmlns:svg="http://www.w3.org/2000/svg">
  <sodipodi:namedview
     id="namedview119815"
     pagecolor="#ffffff"
     bordercolor="#999999"
     borderopacity="1"
     inkscape:showpageshadow="0"
     inkscape:pageopacity="0"
     inkscape:pagecheckerboard="0"
     inkscape:deskcolor="#d1d1d1"
     inkscape:document-units="mm"
     showgrid="false"
     inkscape:zoom="0.78127806"
     inkscape:cx="427.50465"
     inkscape:cy="-181.75347"
     inkscape:window-width="1920"
     inkscape:window-height="1009"
     inkscape:window-x="-8"
     inkscape:window-y="-8"
     inkscape:window-maximized="1"
     inkscape:current-layer="layer1" />
  <defs
     id="defs119810">
    <rect
       x="-19130"
       y="-8847"
       width="866"
       height="407"
       id="rect118579" />
  </defs>
  <g
     inkscape:label="Warstwa 1"
     inkscape:groupmode="layer"
     id="layer1"
     transform="translate(-4.0239455,-147.27025)">
    <g
       id="g140879"
       transform="matrix(0.05392967,0,0,0.05392967,113.67037,182.77845)"
       style="fill:#ffffff">
      <path
         style="opacity:1;fill:#ffffff;fill-opacity:1;stroke:none;stroke-width:13.6063;stroke-dasharray:none;stroke-opacity:1"
         d="m -15680.82,-7937.8879 c -16.246,-7.0643 -28.126,-30.3253 -95.435,-186.8649 -27.728,-64.4859 -51.181,-118.015 -52.119,-118.9533 -0.938,-0.9383 -0.578,58.4617 0.8,132 1.712,91.3771 1.148,137.1223 -1.782,144.4969 -9.099,22.9041 -14.341,23.8706 -129.446,23.8668 -57.859,0 -111.13,-0.1508 -118.38,-0.3304 -8.344,-0.2072 -16.785,-3.9302 -23,-10.1453 -9.396,-9.3957 -9.82,-12.0204 -9.862,-61 -0.02,-28.1501 2.915,-117.7819 6.53,-199.1819 5.666,-127.5779 5.931,-172.0098 1.918,-322 -2.56,-95.7 -5.752,-195.6552 -7.092,-222.1228 -3.923,-77.4651 -4.675,-77.1039 161.517,-77.5852 l 100.83,-0.292 10.648,13.3453 c 5.857,7.3399 51.116,102.2899 100.576,211 49.46,108.7101 91.385,199.2049 93.167,201.0997 3.482,3.7022 10.492,-10.5586 120.659,-245.445 53.401,-113.857 75.736,-157.3848 85.685,-166.985 l 13.456,-12.9849 93.075,-0.3017 c 51.191,-0.1659 103.471,-0.4099 116.177,-0.5423 25.032,-0.2608 36.523,6.1998 43.503,24.4593 2.307,6.0326 1.21,86.9384 -2.928,216 -6.228,194.2608 -6.206,218.4372 0.388,412.5194 6.504,191.436 6.535,207.0732 0.428,218.8814 -3.616,6.9942 -10.309,14.7148 -14.872,17.1569 -5.452,2.9178 -42.813,4.4342 -108.959,4.4225 -155.844,-0.028 -144.167,0.7788 -155.694,-10.749 -5.568,-5.568 -11.279,-16.283 -12.692,-23.8112 -1.412,-7.5282 -0.631,-71.6022 1.735,-142.3866 2.366,-70.7845 3.623,-129.3778 2.794,-130.2074 -0.83,-0.8296 -26.383,60.1499 -56.786,135.5101 -62.29,154.4021 -70.741,172.2407 -84.588,178.5499 -13.639,6.2146 -64.775,5.3102 -80.251,-1.4193 z"
         id="path140867"
         transform="matrix(0.26458333,0,0,0.26458333,2229.3118,2000.0322)" />
      <path
         style="opacity:1;fill:#ffffff;fill-opacity:1;stroke:none;stroke-width:13.6063;stroke-dasharray:none;stroke-opacity:1"
         d="m -14924,-7938.5034 c -4.4,-0.8664 -17.9,-3.5461 -30,-5.9549 -32.44,-6.4578 -73.131,-29.2781 -95.099,-53.3338 -48.455,-53.06 -62.093,-117.5817 -62.183,-294.2079 -0.08,-156.4475 14.651,-242.7631 44.874,-262.9305 13.126,-8.7595 16.681,-9.0687 104,-9.0472 97.514,0.024 116.84,2.8133 127.007,18.3303 7.027,10.7241 6.791,20.4618 -2.899,119.6474 -5.491,56.2148 -2.628,203.8603 4.422,228 6.094,20.8658 13.771,29.0477 32.529,34.6677 21.57,6.4624 43.262,-0.8858 65.491,-22.185 l 17.858,-17.1114 v -162.4252 c 0,-93.544 1.621,-166.6878 3.821,-172.4765 2.102,-5.5282 8.802,-13.2953 14.889,-17.2604 10.056,-6.5499 20.857,-7.13 118.119,-6.3429 120.277,0.9734 126.979,2.3119 135.122,26.9852 3.499,10.6013 3.448,40.8997 -0.209,125.0695 -3.161,72.7509 -3.892,166.5899 -2.118,271.9556 3.065,182.0019 3.468,179.0163 -25.773,190.7161 -20.707,8.2857 -108.685,12.7061 -169.693,8.5263 -42.539,-2.9143 -44.234,-3.395 -57,-16.1613 -10.004,-10.0037 -13.158,-16.6095 -13.158,-27.5577 0,-7.92 -1.773,-14.4 -3.94,-14.4 -2.167,0 -12.71,5.3966 -23.43,11.9925 -60.791,37.4053 -132.732,55.3301 -182.63,45.5041 z m 222,-89.4966 c 0,-4.4 -1.58,-8 -3.51,-8 -5.246,0 -12.817,10.3399 -9.789,13.368 5.477,5.4762 13.299,2.3186 13.299,-5.368 z"
         id="path140869"
         transform="matrix(0.26458333,0,0,0.26458333,2229.3118,2000.0322)" />
      <path
         style="opacity:1;fill:#ffffff;fill-opacity:1;stroke:none;stroke-width:13.6063;stroke-dasharray:none;stroke-opacity:1"
         d="m -13705.307,-7932.7683 c -52.506,-5.8386 -105.636,-32.2543 -147.176,-73.1739 -71.914,-70.8398 -105.152,-159.1467 -100.377,-266.6794 l 2.071,-46.6216 -11.314,12.6216 -11.314,12.6216 -55.291,0.1903 c -73.239,0.252 -76.048,0.5654 -84.963,9.4808 -11.996,11.9962 -13.299,39.803 -8.54,182.2438 4.222,126.3964 4.094,132.3368 -3.073,142 -13.673,18.4353 -30.025,20.7839 -134.9,19.3762 -103.207,-1.3854 -110.893,-2.8807 -122.06,-23.7479 -3.162,-5.9072 -4.781,-68.9152 -5.37,-209 -0.87,-207.0123 -2.062,-225.9281 -19.149,-303.7842 -13.708,-62.4628 -6.722,-71.1874 64.763,-80.8742 25.3,-3.4283 68.962,-10.6549 97.026,-16.0591 28.065,-5.4041 55.653,-9.8257 61.308,-9.8257 14.891,0 32.12,19.01 35.532,39.2067 1.56,9.2363 3.624,16.7933 4.585,16.7933 0.962,0 14.51,-6.4263 30.106,-14.2806 70.894,-35.7015 145.189,-39.1917 165.766,-7.7873 6.442,9.8312 6.568,15.5869 1.736,79.3341 -3.108,40.9886 -3.967,80.0363 -2.129,96.7338 l 3.082,28 7.038,-25.3994 c 3.871,-13.9697 14.728,-40.9192 24.128,-59.8877 13.753,-27.7565 24.188,-41.6354 53.456,-71.104 30.368,-30.5765 41.974,-39.2739 70.366,-52.7327 51.346,-24.3398 80.725,-30.6144 144,-30.7557 61.376,-0.137 91.654,7.4208 128.166,31.9915 l 19.84,13.351 4.497,-8.7315 c 2.473,-4.8023 8.186,-12.7815 12.694,-17.7315 11.447,-12.5673 38.398,-11.8504 111.49,2.9657 74.481,15.0975 98.585,23.2188 108.38,36.5163 7.648,10.3823 7.634,11.0667 -1.514,72 -7.948,52.9427 -9.258,77.409 -9.394,175.518 -0.09,62.7 1.474,157.5467 3.471,210.7705 l 3.629,96.7705 -13.66,13.6596 c -16.014,16.0143 -23.729,17.2174 -135.935,21.197 -81.861,2.9034 -90.355,0.6994 -101.136,-26.2439 -3.555,-8.8845 -7.173,-16.1537 -8.04,-16.1537 -0.867,0 -12.131,7.0376 -25.032,15.6391 -43.229,28.8231 -92.456,38.7437 -156.763,31.5926 z m 133.307,-246.7471 c 34.14,-15.6611 51.176,-43.7354 51.176,-84.335 0,-41.8407 -20.755,-73.2995 -56.736,-85.9942 -34.917,-12.3197 -69.897,-4.9085 -94.915,20.1096 -18.485,18.4843 -25.468,36.7923 -25.503,66.8635 -0.08,64.365 68.486,109.7296 125.978,83.3561 z m -578.145,-314.3094 c 5.56,-6.7004 2.349,-14.1752 -6.091,-14.1752 -3.482,0 -5.764,3.9598 -5.764,10 0,11.2356 4.639,12.8695 11.855,4.1752 z"
         id="path140871"
         transform="matrix(0.26458333,0,0,0.26458333,2229.3118,2000.0322)" />
      <path
         style="opacity:1;fill:#ffffff;fill-opacity:1;stroke:none;stroke-width:13.6063;stroke-dasharray:none;stroke-opacity:1"
         d="m -13168.748,-7944.2813 c -7.012,-2.0993 -16.462,-8.5377 -21,-14.3073 -8.041,-10.2225 -8.253,-14.8416 -8.287,-180.9508 -0.04,-178.3827 -3.565,-255.9948 -14.212,-312.604 -3.502,-18.6211 -7.346,-43.2286 -8.541,-54.6833 -1.988,-19.0448 -1.184,-21.8162 9.39,-32.3907 10.26,-10.2599 16.066,-12.1087 51.481,-16.3947 21.954,-2.6568 70.961,-10.352 108.903,-17.1003 89.301,-15.8829 95.379,-13.8154 104.067,35.4042 l 2.947,16.6918 36.819,-21.102 c 54.552,-31.2654 94.059,-43.2795 141.181,-42.9334 20.9,0.1535 48.8,3.1018 62,6.5519 54.16,14.1557 102.652,48.1756 121.594,85.3043 19.87,38.949 20.406,46.6417 20.406,293.0966 0,226.5715 -0.144,230.8035 -8.215,241.0633 -13.46,17.1127 -29.725,19.361 -129.785,17.9412 -101.378,-1.4386 -112.261,-3.7945 -121.592,-26.3211 -3.329,-8.0352 -4.968,-62.2323 -5.564,-183.8959 -0.823,-168.1972 -1.053,-172.7849 -9.227,-183.7958 -17.381,-23.4131 -55.151,-20.5303 -84.707,6.4653 l -12.91,11.791 v 168.621 c 0,141.5845 -0.962,170.6479 -5.999,181.2626 -11.293,23.799 -14.575,24.492 -120.001,25.3353 -52.8,0.4223 -101.737,-0.9498 -108.748,-3.0492 z m 219.609,-541.1851 c 5.222,-3.9673 5.748,-6.325 2.2,-9.8728 -7.811,-7.8107 -15.061,-5.2405 -15.061,5.3392 0,11.1829 2.806,12.172 12.861,4.5336 z"
         id="path140873"
         transform="matrix(0.26458333,0,0,0.26458333,2229.3118,2000.0322)" />
    </g>
    <g
       id="g161069"
       style="fill:#503af5;fill-opacity:1"
       transform="matrix(0.62944508,0,0,0.62944508,8284.306,12353.248)">
      <path
         style="opacity:1;fill:#503af5;fill-opacity:1;stroke:none;stroke-width:7.89972;stroke-dasharray:none;stroke-opacity:1"
         d="m -13110.336,-19360.311 c -0.07,-0.08 -0.233,-0.705 -0.369,-1.388 -0.415,-2.079 -0.471,-2.349 -0.872,-4.207 l -0.388,-1.794 0.924,-1.494 c 0.508,-0.821 1.023,-1.667 1.144,-1.88 0.777,-1.37 2.125,-3.488 2.219,-3.488 0.107,0 0.267,0.32 0.99,1.973 0.659,1.506 0.774,1.765 0.972,2.179 0.112,0.233 0.204,0.478 0.204,0.544 0,0.07 0.164,0.483 0.365,0.928 l 0.731,1.615 c 0.201,0.445 0.365,0.838 0.365,0.874 0,0.04 0.195,0.491 0.434,1.011 l 0.433,0.947 -0.773,1.651 c -0.426,0.909 -0.866,1.863 -0.978,2.121 l -0.205,0.469 -2.537,0.04 c -1.568,0.03 -2.584,-0.01 -2.659,-0.104 z"
         id="path161061" />
      <path
         style="opacity:1;fill:#503af5;fill-opacity:1;stroke:none;stroke-width:7.89972;stroke-dasharray:none;stroke-opacity:1"
         d="m -13100.981,-19360.375 c 0,-0.08 0.471,-1.095 1.047,-2.262 l 1.047,-2.122 -0.487,-1.065 c -0.267,-0.585 -0.763,-1.656 -1.102,-2.38 -0.338,-0.723 -0.763,-1.644 -0.943,-2.046 -0.18,-0.402 -0.51,-1.125 -0.734,-1.608 -0.223,-0.482 -0.633,-1.37 -0.912,-1.973 -0.278,-0.603 -0.739,-1.589 -1.023,-2.192 -0.284,-0.603 -0.662,-1.425 -0.84,-1.827 -0.178,-0.402 -0.514,-1.123 -0.745,-1.603 l -0.421,-0.871 3.385,-3.396 c 3.179,-3.19 3.395,-3.377 3.547,-3.075 0.09,0.176 0.352,0.782 0.584,1.344 0.467,1.132 0.811,1.934 1.251,2.922 0.16,0.361 0.292,0.688 0.292,0.727 0,0.04 0.172,0.45 0.383,0.915 0.45,0.992 0.415,0.911 1.957,4.571 0.66,1.568 1.323,3.122 1.472,3.454 0.149,0.332 0.578,1.351 0.951,2.266 0.374,0.914 0.81,1.957 0.969,2.319 0.16,0.362 0.347,0.79 0.416,0.95 0.07,0.161 0.425,0.975 0.79,1.81 0.364,0.834 0.663,1.604 0.663,1.712 0,0.172 -1.115,2.706 -1.441,3.275 -0.108,0.187 -0.862,0.225 -5.116,0.258 -3.125,0.02 -4.99,-0.01 -4.99,-0.103 z"
         id="path161063" />
      <path
         style="opacity:1;fill:#503af5;fill-opacity:1;stroke:none;stroke-width:7.89972;stroke-dasharray:none;stroke-opacity:1"
         d="m -13090.89,-19377.422 c -0.245,-0.539 -0.445,-0.999 -0.445,-1.023 0,-0.02 -0.23,-0.54 -0.511,-1.149 -0.282,-0.609 -0.512,-1.133 -0.512,-1.164 0,-0.03 -0.296,-0.685 -0.658,-1.454 -0.361,-0.769 -0.657,-1.429 -0.657,-1.468 0,-0.04 -0.19,-0.485 -0.423,-0.993 -0.896,-1.959 -1.231,-2.701 -1.506,-3.335 -0.534,-1.234 -0.667,-1.536 -1.05,-2.38 -0.211,-0.464 -0.383,-0.941 -0.383,-1.059 0,-0.186 0.6,-0.213 4.275,-0.198 2.352,0.01 4.961,0.06 5.798,0.11 l 1.522,0.09 0.317,0.878 c 0.175,0.482 0.356,0.975 0.402,1.096 0.328,0.858 1.439,4.272 1.4,4.304 -0.07,0.06 -5.35,0.374 -6.296,0.373 -0.587,0 -0.841,0.06 -0.841,0.187 0,0.104 0.461,1.358 1.024,2.789 0.562,1.43 1.023,2.651 1.023,2.713 0,0.16 -1.745,2.56 -1.903,2.616 -0.07,0.03 -0.332,-0.395 -0.576,-0.934 z"
         id="path161065" />
      <path
         style="opacity:1;fill:#503af5;fill-opacity:1;stroke:none;stroke-width:7.89972;stroke-dasharray:none;stroke-opacity:1"
         d="m -13086.423,-19360.859 c 0.127,-0.342 0.3,-0.786 0.383,-0.987 0.577,-1.384 0.805,-2.116 0.729,-2.338 -0.04,-0.121 -0.222,-0.548 -0.402,-0.95 -0.297,-0.663 -1.435,-3.296 -1.894,-4.385 -0.101,-0.241 -0.348,-0.8 -0.547,-1.243 -0.627,-1.389 -0.628,-1.42 -0.1,-2.17 0.265,-0.374 0.519,-0.712 0.564,-0.753 0.04,-0.04 0.967,-1.257 2.051,-2.704 1.463,-1.954 1.984,-2.556 2.025,-2.338 0.03,0.16 0.102,0.358 0.16,0.438 0.06,0.08 0.22,0.475 0.361,0.877 0.273,0.781 0.369,1.024 0.718,1.827 0.122,0.282 0.722,1.794 1.333,3.362 0.61,1.568 1.183,3.015 1.273,3.216 0.09,0.2 0.213,0.497 0.273,0.657 0.559,1.492 1.159,2.987 1.337,3.335 0.101,0.196 -0.04,0.734 -0.54,2.046 -0.372,0.98 -0.737,1.895 -0.811,2.035 -0.07,0.14 -0.135,0.353 -0.135,0.475 0,0.191 -0.473,0.221 -3.506,0.221 h -3.507 z"
         id="path161067" />
    </g>
  </g>
</svg>
